<mxfile host="app.diagrams.net" modified="2023-12-01T21:47:29.674Z" agent="Mozilla/5.0 (Windows NT 10.0; Win64; x64; rv:109.0) Gecko/20100101 Firefox/115.0" etag="hMXnS-9syqbnLFxEMLgG" version="22.1.5" type="github">
  <diagram name="Page-1" id="UT8CZ-kKXrXBAKMA9dyA">
    <mxGraphModel dx="2834" dy="1744" grid="1" gridSize="10" guides="1" tooltips="1" connect="1" arrows="1" fold="1" page="1" pageScale="1" pageWidth="850" pageHeight="1100" math="0" shadow="0">
      <root>
        <mxCell id="0" />
        <mxCell id="1" parent="0" />
        <mxCell id="s4YndSarPMpqqNExpwYl-1" value="User" style="swimlane;fontStyle=1;align=center;verticalAlign=top;childLayout=stackLayout;horizontal=1;startSize=26;horizontalStack=0;resizeParent=1;resizeParentMax=0;resizeLast=0;collapsible=1;marginBottom=0;whiteSpace=wrap;html=1;" parent="1" vertex="1">
          <mxGeometry x="-720" y="600" width="160" height="346" as="geometry" />
        </mxCell>
        <mxCell id="s4YndSarPMpqqNExpwYl-19" value="username" style="text;strokeColor=none;fillColor=none;align=left;verticalAlign=top;spacingLeft=4;spacingRight=4;overflow=hidden;rotatable=0;points=[[0,0.5],[1,0.5]];portConstraint=eastwest;whiteSpace=wrap;html=1;" parent="s4YndSarPMpqqNExpwYl-1" vertex="1">
          <mxGeometry y="26" width="160" height="26" as="geometry" />
        </mxCell>
        <mxCell id="uorjEG0-72uclnNMncX7-30" value="email" style="text;strokeColor=none;fillColor=none;align=left;verticalAlign=top;spacingLeft=4;spacingRight=4;overflow=hidden;rotatable=0;points=[[0,0.5],[1,0.5]];portConstraint=eastwest;whiteSpace=wrap;html=1;" parent="s4YndSarPMpqqNExpwYl-1" vertex="1">
          <mxGeometry y="52" width="160" height="26" as="geometry" />
        </mxCell>
        <mxCell id="s4YndSarPMpqqNExpwYl-20" value="password" style="text;strokeColor=none;fillColor=none;align=left;verticalAlign=top;spacingLeft=4;spacingRight=4;overflow=hidden;rotatable=0;points=[[0,0.5],[1,0.5]];portConstraint=eastwest;whiteSpace=wrap;html=1;" parent="s4YndSarPMpqqNExpwYl-1" vertex="1">
          <mxGeometry y="78" width="160" height="26" as="geometry" />
        </mxCell>
        <mxCell id="s4YndSarPMpqqNExpwYl-94" value="followers" style="text;strokeColor=none;fillColor=none;align=left;verticalAlign=top;spacingLeft=4;spacingRight=4;overflow=hidden;rotatable=0;points=[[0,0.5],[1,0.5]];portConstraint=eastwest;whiteSpace=wrap;html=1;" parent="s4YndSarPMpqqNExpwYl-1" vertex="1">
          <mxGeometry y="104" width="160" height="26" as="geometry" />
        </mxCell>
        <mxCell id="s4YndSarPMpqqNExpwYl-95" value="followings" style="text;strokeColor=none;fillColor=none;align=left;verticalAlign=top;spacingLeft=4;spacingRight=4;overflow=hidden;rotatable=0;points=[[0,0.5],[1,0.5]];portConstraint=eastwest;whiteSpace=wrap;html=1;" parent="s4YndSarPMpqqNExpwYl-1" vertex="1">
          <mxGeometry y="130" width="160" height="26" as="geometry" />
        </mxCell>
        <mxCell id="s4YndSarPMpqqNExpwYl-18" value="posts" style="text;strokeColor=none;fillColor=none;align=left;verticalAlign=top;spacingLeft=4;spacingRight=4;overflow=hidden;rotatable=0;points=[[0,0.5],[1,0.5]];portConstraint=eastwest;whiteSpace=wrap;html=1;" parent="s4YndSarPMpqqNExpwYl-1" vertex="1">
          <mxGeometry y="156" width="160" height="26" as="geometry" />
        </mxCell>
        <mxCell id="s4YndSarPMpqqNExpwYl-3" value="" style="line;strokeWidth=1;fillColor=none;align=left;verticalAlign=middle;spacingTop=-1;spacingLeft=3;spacingRight=3;rotatable=0;labelPosition=right;points=[];portConstraint=eastwest;strokeColor=inherit;" parent="s4YndSarPMpqqNExpwYl-1" vertex="1">
          <mxGeometry y="182" width="160" height="8" as="geometry" />
        </mxCell>
        <mxCell id="uorjEG0-72uclnNMncX7-3" value="findById()" style="text;strokeColor=none;fillColor=none;align=left;verticalAlign=top;spacingLeft=4;spacingRight=4;overflow=hidden;rotatable=0;points=[[0,0.5],[1,0.5]];portConstraint=eastwest;whiteSpace=wrap;html=1;" parent="s4YndSarPMpqqNExpwYl-1" vertex="1">
          <mxGeometry y="190" width="160" height="26" as="geometry" />
        </mxCell>
        <mxCell id="s4YndSarPMpqqNExpwYl-22" value="findByUsername()" style="text;strokeColor=none;fillColor=none;align=left;verticalAlign=top;spacingLeft=4;spacingRight=4;overflow=hidden;rotatable=0;points=[[0,0.5],[1,0.5]];portConstraint=eastwest;whiteSpace=wrap;html=1;" parent="s4YndSarPMpqqNExpwYl-1" vertex="1">
          <mxGeometry y="216" width="160" height="26" as="geometry" />
        </mxCell>
        <mxCell id="s4YndSarPMpqqNExpwYl-23" value="findAll()" style="text;strokeColor=none;fillColor=none;align=left;verticalAlign=top;spacingLeft=4;spacingRight=4;overflow=hidden;rotatable=0;points=[[0,0.5],[1,0.5]];portConstraint=eastwest;whiteSpace=wrap;html=1;" parent="s4YndSarPMpqqNExpwYl-1" vertex="1">
          <mxGeometry y="242" width="160" height="26" as="geometry" />
        </mxCell>
        <mxCell id="s4YndSarPMpqqNExpwYl-24" value="create()" style="text;strokeColor=none;fillColor=none;align=left;verticalAlign=top;spacingLeft=4;spacingRight=4;overflow=hidden;rotatable=0;points=[[0,0.5],[1,0.5]];portConstraint=eastwest;whiteSpace=wrap;html=1;" parent="s4YndSarPMpqqNExpwYl-1" vertex="1">
          <mxGeometry y="268" width="160" height="26" as="geometry" />
        </mxCell>
        <mxCell id="s4YndSarPMpqqNExpwYl-25" value="update()" style="text;strokeColor=none;fillColor=none;align=left;verticalAlign=top;spacingLeft=4;spacingRight=4;overflow=hidden;rotatable=0;points=[[0,0.5],[1,0.5]];portConstraint=eastwest;whiteSpace=wrap;html=1;" parent="s4YndSarPMpqqNExpwYl-1" vertex="1">
          <mxGeometry y="294" width="160" height="26" as="geometry" />
        </mxCell>
        <mxCell id="uorjEG0-72uclnNMncX7-2" value="delete()" style="text;strokeColor=none;fillColor=none;align=left;verticalAlign=top;spacingLeft=4;spacingRight=4;overflow=hidden;rotatable=0;points=[[0,0.5],[1,0.5]];portConstraint=eastwest;whiteSpace=wrap;html=1;" parent="s4YndSarPMpqqNExpwYl-1" vertex="1">
          <mxGeometry y="320" width="160" height="26" as="geometry" />
        </mxCell>
        <mxCell id="s4YndSarPMpqqNExpwYl-5" value="Comment" style="swimlane;fontStyle=1;align=center;verticalAlign=top;childLayout=stackLayout;horizontal=1;startSize=26;horizontalStack=0;resizeParent=1;resizeParentMax=0;resizeLast=0;collapsible=1;marginBottom=0;whiteSpace=wrap;html=1;" parent="1" vertex="1">
          <mxGeometry x="-90" y="613" width="160" height="268" as="geometry" />
        </mxCell>
        <mxCell id="s4YndSarPMpqqNExpwYl-6" value="commentId" style="text;strokeColor=none;fillColor=none;align=left;verticalAlign=top;spacingLeft=4;spacingRight=4;overflow=hidden;rotatable=0;points=[[0,0.5],[1,0.5]];portConstraint=eastwest;whiteSpace=wrap;html=1;" parent="s4YndSarPMpqqNExpwYl-5" vertex="1">
          <mxGeometry y="26" width="160" height="26" as="geometry" />
        </mxCell>
        <mxCell id="s4YndSarPMpqqNExpwYl-123" value="content" style="text;strokeColor=none;fillColor=none;align=left;verticalAlign=top;spacingLeft=4;spacingRight=4;overflow=hidden;rotatable=0;points=[[0,0.5],[1,0.5]];portConstraint=eastwest;whiteSpace=wrap;html=1;" parent="s4YndSarPMpqqNExpwYl-5" vertex="1">
          <mxGeometry y="52" width="160" height="26" as="geometry" />
        </mxCell>
        <mxCell id="s4YndSarPMpqqNExpwYl-124" value="author" style="text;strokeColor=none;fillColor=none;align=left;verticalAlign=top;spacingLeft=4;spacingRight=4;overflow=hidden;rotatable=0;points=[[0,0.5],[1,0.5]];portConstraint=eastwest;whiteSpace=wrap;html=1;" parent="s4YndSarPMpqqNExpwYl-5" vertex="1">
          <mxGeometry y="78" width="160" height="26" as="geometry" />
        </mxCell>
        <mxCell id="s4YndSarPMpqqNExpwYl-125" value="parentPost" style="text;strokeColor=none;fillColor=none;align=left;verticalAlign=top;spacingLeft=4;spacingRight=4;overflow=hidden;rotatable=0;points=[[0,0.5],[1,0.5]];portConstraint=eastwest;whiteSpace=wrap;html=1;" parent="s4YndSarPMpqqNExpwYl-5" vertex="1">
          <mxGeometry y="104" width="160" height="26" as="geometry" />
        </mxCell>
        <mxCell id="s4YndSarPMpqqNExpwYl-7" value="" style="line;strokeWidth=1;fillColor=none;align=left;verticalAlign=middle;spacingTop=-1;spacingLeft=3;spacingRight=3;rotatable=0;labelPosition=right;points=[];portConstraint=eastwest;strokeColor=inherit;" parent="s4YndSarPMpqqNExpwYl-5" vertex="1">
          <mxGeometry y="130" width="160" height="8" as="geometry" />
        </mxCell>
        <mxCell id="uorjEG0-72uclnNMncX7-110" value="findById()" style="text;strokeColor=none;fillColor=none;align=left;verticalAlign=top;spacingLeft=4;spacingRight=4;overflow=hidden;rotatable=0;points=[[0,0.5],[1,0.5]];portConstraint=eastwest;whiteSpace=wrap;html=1;" parent="s4YndSarPMpqqNExpwYl-5" vertex="1">
          <mxGeometry y="138" width="160" height="26" as="geometry" />
        </mxCell>
        <mxCell id="uorjEG0-72uclnNMncX7-111" value="findAllByPostId()" style="text;strokeColor=none;fillColor=none;align=left;verticalAlign=top;spacingLeft=4;spacingRight=4;overflow=hidden;rotatable=0;points=[[0,0.5],[1,0.5]];portConstraint=eastwest;whiteSpace=wrap;html=1;" parent="s4YndSarPMpqqNExpwYl-5" vertex="1">
          <mxGeometry y="164" width="160" height="26" as="geometry" />
        </mxCell>
        <mxCell id="s4YndSarPMpqqNExpwYl-8" value="create()" style="text;strokeColor=none;fillColor=none;align=left;verticalAlign=top;spacingLeft=4;spacingRight=4;overflow=hidden;rotatable=0;points=[[0,0.5],[1,0.5]];portConstraint=eastwest;whiteSpace=wrap;html=1;" parent="s4YndSarPMpqqNExpwYl-5" vertex="1">
          <mxGeometry y="190" width="160" height="26" as="geometry" />
        </mxCell>
        <mxCell id="uorjEG0-72uclnNMncX7-112" value="update()" style="text;strokeColor=none;fillColor=none;align=left;verticalAlign=top;spacingLeft=4;spacingRight=4;overflow=hidden;rotatable=0;points=[[0,0.5],[1,0.5]];portConstraint=eastwest;whiteSpace=wrap;html=1;" parent="s4YndSarPMpqqNExpwYl-5" vertex="1">
          <mxGeometry y="216" width="160" height="26" as="geometry" />
        </mxCell>
        <mxCell id="uorjEG0-72uclnNMncX7-113" value="delete()" style="text;strokeColor=none;fillColor=none;align=left;verticalAlign=top;spacingLeft=4;spacingRight=4;overflow=hidden;rotatable=0;points=[[0,0.5],[1,0.5]];portConstraint=eastwest;whiteSpace=wrap;html=1;" parent="s4YndSarPMpqqNExpwYl-5" vertex="1">
          <mxGeometry y="242" width="160" height="26" as="geometry" />
        </mxCell>
        <mxCell id="s4YndSarPMpqqNExpwYl-26" value="Post" style="swimlane;fontStyle=1;align=center;verticalAlign=top;childLayout=stackLayout;horizontal=1;startSize=26;horizontalStack=0;resizeParent=1;resizeParentMax=0;resizeLast=0;collapsible=1;marginBottom=0;whiteSpace=wrap;html=1;" parent="1" vertex="1">
          <mxGeometry x="-440" y="600" width="160" height="294" as="geometry" />
        </mxCell>
        <mxCell id="s4YndSarPMpqqNExpwYl-27" value="postId" style="text;strokeColor=none;fillColor=none;align=left;verticalAlign=top;spacingLeft=4;spacingRight=4;overflow=hidden;rotatable=0;points=[[0,0.5],[1,0.5]];portConstraint=eastwest;whiteSpace=wrap;html=1;" parent="s4YndSarPMpqqNExpwYl-26" vertex="1">
          <mxGeometry y="26" width="160" height="26" as="geometry" />
        </mxCell>
        <mxCell id="s4YndSarPMpqqNExpwYl-28" value="content" style="text;strokeColor=none;fillColor=none;align=left;verticalAlign=top;spacingLeft=4;spacingRight=4;overflow=hidden;rotatable=0;points=[[0,0.5],[1,0.5]];portConstraint=eastwest;whiteSpace=wrap;html=1;" parent="s4YndSarPMpqqNExpwYl-26" vertex="1">
          <mxGeometry y="52" width="160" height="26" as="geometry" />
        </mxCell>
        <mxCell id="s4YndSarPMpqqNExpwYl-29" value="author" style="text;strokeColor=none;fillColor=none;align=left;verticalAlign=top;spacingLeft=4;spacingRight=4;overflow=hidden;rotatable=0;points=[[0,0.5],[1,0.5]];portConstraint=eastwest;whiteSpace=wrap;html=1;" parent="s4YndSarPMpqqNExpwYl-26" vertex="1">
          <mxGeometry y="78" width="160" height="26" as="geometry" />
        </mxCell>
        <mxCell id="s4YndSarPMpqqNExpwYl-30" value="comments" style="text;strokeColor=none;fillColor=none;align=left;verticalAlign=top;spacingLeft=4;spacingRight=4;overflow=hidden;rotatable=0;points=[[0,0.5],[1,0.5]];portConstraint=eastwest;whiteSpace=wrap;html=1;" parent="s4YndSarPMpqqNExpwYl-26" vertex="1">
          <mxGeometry y="104" width="160" height="26" as="geometry" />
        </mxCell>
        <mxCell id="s4YndSarPMpqqNExpwYl-32" value="reshareCount" style="text;strokeColor=none;fillColor=none;align=left;verticalAlign=top;spacingLeft=4;spacingRight=4;overflow=hidden;rotatable=0;points=[[0,0.5],[1,0.5]];portConstraint=eastwest;whiteSpace=wrap;html=1;" parent="s4YndSarPMpqqNExpwYl-26" vertex="1">
          <mxGeometry y="130" width="160" height="26" as="geometry" />
        </mxCell>
        <mxCell id="s4YndSarPMpqqNExpwYl-31" value="" style="line;strokeWidth=1;fillColor=none;align=left;verticalAlign=middle;spacingTop=-1;spacingLeft=3;spacingRight=3;rotatable=0;labelPosition=right;points=[];portConstraint=eastwest;strokeColor=inherit;" parent="s4YndSarPMpqqNExpwYl-26" vertex="1">
          <mxGeometry y="156" width="160" height="8" as="geometry" />
        </mxCell>
        <mxCell id="uorjEG0-72uclnNMncX7-1" value="findById()" style="text;strokeColor=none;fillColor=none;align=left;verticalAlign=top;spacingLeft=4;spacingRight=4;overflow=hidden;rotatable=0;points=[[0,0.5],[1,0.5]];portConstraint=eastwest;whiteSpace=wrap;html=1;" parent="s4YndSarPMpqqNExpwYl-26" vertex="1">
          <mxGeometry y="164" width="160" height="26" as="geometry" />
        </mxCell>
        <mxCell id="s4YndSarPMpqqNExpwYl-33" value="findAllByUserId()" style="text;strokeColor=none;fillColor=none;align=left;verticalAlign=top;spacingLeft=4;spacingRight=4;overflow=hidden;rotatable=0;points=[[0,0.5],[1,0.5]];portConstraint=eastwest;whiteSpace=wrap;html=1;" parent="s4YndSarPMpqqNExpwYl-26" vertex="1">
          <mxGeometry y="190" width="160" height="26" as="geometry" />
        </mxCell>
        <mxCell id="uorjEG0-72uclnNMncX7-107" value="create()" style="text;strokeColor=none;fillColor=none;align=left;verticalAlign=top;spacingLeft=4;spacingRight=4;overflow=hidden;rotatable=0;points=[[0,0.5],[1,0.5]];portConstraint=eastwest;whiteSpace=wrap;html=1;" parent="s4YndSarPMpqqNExpwYl-26" vertex="1">
          <mxGeometry y="216" width="160" height="26" as="geometry" />
        </mxCell>
        <mxCell id="uorjEG0-72uclnNMncX7-108" value="update()" style="text;strokeColor=none;fillColor=none;align=left;verticalAlign=top;spacingLeft=4;spacingRight=4;overflow=hidden;rotatable=0;points=[[0,0.5],[1,0.5]];portConstraint=eastwest;whiteSpace=wrap;html=1;" parent="s4YndSarPMpqqNExpwYl-26" vertex="1">
          <mxGeometry y="242" width="160" height="26" as="geometry" />
        </mxCell>
        <mxCell id="uorjEG0-72uclnNMncX7-109" value="delete()" style="text;strokeColor=none;fillColor=none;align=left;verticalAlign=top;spacingLeft=4;spacingRight=4;overflow=hidden;rotatable=0;points=[[0,0.5],[1,0.5]];portConstraint=eastwest;whiteSpace=wrap;html=1;" parent="s4YndSarPMpqqNExpwYl-26" vertex="1">
          <mxGeometry y="268" width="160" height="26" as="geometry" />
        </mxCell>
        <mxCell id="uorjEG0-72uclnNMncX7-115" value="Follow" style="swimlane;fontStyle=1;align=center;verticalAlign=top;childLayout=stackLayout;horizontal=1;startSize=26;horizontalStack=0;resizeParent=1;resizeParentMax=0;resizeLast=0;collapsible=1;marginBottom=0;whiteSpace=wrap;html=1;" parent="1" vertex="1">
          <mxGeometry x="-1010" y="600" width="160" height="294" as="geometry" />
        </mxCell>
        <mxCell id="uorjEG0-72uclnNMncX7-116" value="username" style="text;strokeColor=none;fillColor=none;align=left;verticalAlign=top;spacingLeft=4;spacingRight=4;overflow=hidden;rotatable=0;points=[[0,0.5],[1,0.5]];portConstraint=eastwest;whiteSpace=wrap;html=1;" parent="uorjEG0-72uclnNMncX7-115" vertex="1">
          <mxGeometry y="26" width="160" height="26" as="geometry" />
        </mxCell>
        <mxCell id="uorjEG0-72uclnNMncX7-117" value="email" style="text;strokeColor=none;fillColor=none;align=left;verticalAlign=top;spacingLeft=4;spacingRight=4;overflow=hidden;rotatable=0;points=[[0,0.5],[1,0.5]];portConstraint=eastwest;whiteSpace=wrap;html=1;" parent="uorjEG0-72uclnNMncX7-115" vertex="1">
          <mxGeometry y="52" width="160" height="26" as="geometry" />
        </mxCell>
        <mxCell id="uorjEG0-72uclnNMncX7-118" value="password" style="text;strokeColor=none;fillColor=none;align=left;verticalAlign=top;spacingLeft=4;spacingRight=4;overflow=hidden;rotatable=0;points=[[0,0.5],[1,0.5]];portConstraint=eastwest;whiteSpace=wrap;html=1;" parent="uorjEG0-72uclnNMncX7-115" vertex="1">
          <mxGeometry y="78" width="160" height="26" as="geometry" />
        </mxCell>
        <mxCell id="uorjEG0-72uclnNMncX7-119" value="followers" style="text;strokeColor=none;fillColor=none;align=left;verticalAlign=top;spacingLeft=4;spacingRight=4;overflow=hidden;rotatable=0;points=[[0,0.5],[1,0.5]];portConstraint=eastwest;whiteSpace=wrap;html=1;" parent="uorjEG0-72uclnNMncX7-115" vertex="1">
          <mxGeometry y="104" width="160" height="26" as="geometry" />
        </mxCell>
        <mxCell id="uorjEG0-72uclnNMncX7-120" value="followings" style="text;strokeColor=none;fillColor=none;align=left;verticalAlign=top;spacingLeft=4;spacingRight=4;overflow=hidden;rotatable=0;points=[[0,0.5],[1,0.5]];portConstraint=eastwest;whiteSpace=wrap;html=1;" parent="uorjEG0-72uclnNMncX7-115" vertex="1">
          <mxGeometry y="130" width="160" height="26" as="geometry" />
        </mxCell>
        <mxCell id="uorjEG0-72uclnNMncX7-121" value="posts" style="text;strokeColor=none;fillColor=none;align=left;verticalAlign=top;spacingLeft=4;spacingRight=4;overflow=hidden;rotatable=0;points=[[0,0.5],[1,0.5]];portConstraint=eastwest;whiteSpace=wrap;html=1;" parent="uorjEG0-72uclnNMncX7-115" vertex="1">
          <mxGeometry y="156" width="160" height="26" as="geometry" />
        </mxCell>
        <mxCell id="uorjEG0-72uclnNMncX7-122" value="" style="line;strokeWidth=1;fillColor=none;align=left;verticalAlign=middle;spacingTop=-1;spacingLeft=3;spacingRight=3;rotatable=0;labelPosition=right;points=[];portConstraint=eastwest;strokeColor=inherit;" parent="uorjEG0-72uclnNMncX7-115" vertex="1">
          <mxGeometry y="182" width="160" height="8" as="geometry" />
        </mxCell>
        <mxCell id="uorjEG0-72uclnNMncX7-123" value="findFollowersByUserId()" style="text;strokeColor=none;fillColor=none;align=left;verticalAlign=top;spacingLeft=4;spacingRight=4;overflow=hidden;rotatable=0;points=[[0,0.5],[1,0.5]];portConstraint=eastwest;whiteSpace=wrap;html=1;" parent="uorjEG0-72uclnNMncX7-115" vertex="1">
          <mxGeometry y="190" width="160" height="26" as="geometry" />
        </mxCell>
        <mxCell id="uorjEG0-72uclnNMncX7-124" value="findFollowingByUserId()" style="text;strokeColor=none;fillColor=none;align=left;verticalAlign=top;spacingLeft=4;spacingRight=4;overflow=hidden;rotatable=0;points=[[0,0.5],[1,0.5]];portConstraint=eastwest;whiteSpace=wrap;html=1;" parent="uorjEG0-72uclnNMncX7-115" vertex="1">
          <mxGeometry y="216" width="160" height="26" as="geometry" />
        </mxCell>
        <mxCell id="uorjEG0-72uclnNMncX7-126" value="create()" style="text;strokeColor=none;fillColor=none;align=left;verticalAlign=top;spacingLeft=4;spacingRight=4;overflow=hidden;rotatable=0;points=[[0,0.5],[1,0.5]];portConstraint=eastwest;whiteSpace=wrap;html=1;" parent="uorjEG0-72uclnNMncX7-115" vertex="1">
          <mxGeometry y="242" width="160" height="26" as="geometry" />
        </mxCell>
        <mxCell id="uorjEG0-72uclnNMncX7-128" value="delete()" style="text;strokeColor=none;fillColor=none;align=left;verticalAlign=top;spacingLeft=4;spacingRight=4;overflow=hidden;rotatable=0;points=[[0,0.5],[1,0.5]];portConstraint=eastwest;whiteSpace=wrap;html=1;" parent="uorjEG0-72uclnNMncX7-115" vertex="1">
          <mxGeometry y="268" width="160" height="26" as="geometry" />
        </mxCell>
        <mxCell id="uorjEG0-72uclnNMncX7-129" value="" style="endArrow=none;html=1;edgeStyle=orthogonalEdgeStyle;rounded=0;exitX=1;exitY=0.5;exitDx=0;exitDy=0;entryX=0;entryY=0.5;entryDx=0;entryDy=0;" parent="1" source="uorjEG0-72uclnNMncX7-120" target="uorjEG0-72uclnNMncX7-3" edge="1">
          <mxGeometry relative="1" as="geometry">
            <mxPoint x="-820" y="772.5" as="sourcePoint" />
            <mxPoint x="-660" y="772.5" as="targetPoint" />
          </mxGeometry>
        </mxCell>
        <mxCell id="uorjEG0-72uclnNMncX7-130" value="*" style="edgeLabel;resizable=0;html=1;align=left;verticalAlign=bottom;" parent="uorjEG0-72uclnNMncX7-129" connectable="0" vertex="1">
          <mxGeometry x="-1" relative="1" as="geometry" />
        </mxCell>
        <mxCell id="uorjEG0-72uclnNMncX7-131" value="*" style="edgeLabel;resizable=0;html=1;align=right;verticalAlign=bottom;" parent="uorjEG0-72uclnNMncX7-129" connectable="0" vertex="1">
          <mxGeometry x="1" relative="1" as="geometry" />
        </mxCell>
        <mxCell id="uorjEG0-72uclnNMncX7-135" value="" style="endArrow=diamondThin;endFill=1;endSize=24;html=1;rounded=0;entryX=1;entryY=0.5;entryDx=0;entryDy=0;exitX=0;exitY=0.5;exitDx=0;exitDy=0;" parent="1" source="s4YndSarPMpqqNExpwYl-32" target="uorjEG0-72uclnNMncX7-3" edge="1">
          <mxGeometry width="160" relative="1" as="geometry">
            <mxPoint x="-470" y="750" as="sourcePoint" />
            <mxPoint x="-530" y="770" as="targetPoint" />
          </mxGeometry>
        </mxCell>
        <mxCell id="uorjEG0-72uclnNMncX7-136" value="*" style="edgeLabel;html=1;align=center;verticalAlign=middle;resizable=0;points=[];" parent="uorjEG0-72uclnNMncX7-135" vertex="1" connectable="0">
          <mxGeometry x="0.7333" y="-2" relative="1" as="geometry">
            <mxPoint x="95" y="-55" as="offset" />
          </mxGeometry>
        </mxCell>
        <mxCell id="uorjEG0-72uclnNMncX7-137" value="1" style="edgeLabel;html=1;align=center;verticalAlign=middle;resizable=0;points=[];" parent="uorjEG0-72uclnNMncX7-135" vertex="1" connectable="0">
          <mxGeometry x="0.6733" y="1" relative="1" as="geometry">
            <mxPoint y="-14" as="offset" />
          </mxGeometry>
        </mxCell>
        <mxCell id="uorjEG0-72uclnNMncX7-138" value="" style="endArrow=diamondThin;endFill=1;endSize=24;html=1;rounded=0;entryX=1;entryY=1;entryDx=0;entryDy=0;edgeStyle=elbowEdgeStyle;exitX=0.5;exitY=1;exitDx=0;exitDy=0;" parent="1" source="s4YndSarPMpqqNExpwYl-5" target="s4YndSarPMpqqNExpwYl-1" edge="1">
          <mxGeometry width="160" relative="1" as="geometry">
            <mxPoint x="-160" y="950" as="sourcePoint" />
            <mxPoint x="-330" y="970" as="targetPoint" />
            <Array as="points">
              <mxPoint x="-340" y="1020" />
            </Array>
          </mxGeometry>
        </mxCell>
        <mxCell id="uorjEG0-72uclnNMncX7-139" value="*" style="edgeLabel;html=1;align=center;verticalAlign=middle;resizable=0;points=[];" parent="uorjEG0-72uclnNMncX7-138" vertex="1" connectable="0">
          <mxGeometry x="0.7333" y="-2" relative="1" as="geometry">
            <mxPoint x="512" y="-118" as="offset" />
          </mxGeometry>
        </mxCell>
        <mxCell id="uorjEG0-72uclnNMncX7-140" value="1" style="edgeLabel;html=1;align=center;verticalAlign=middle;resizable=0;points=[];" parent="uorjEG0-72uclnNMncX7-138" vertex="1" connectable="0">
          <mxGeometry x="0.6733" y="1" relative="1" as="geometry">
            <mxPoint x="-41" y="-21" as="offset" />
          </mxGeometry>
        </mxCell>
        <mxCell id="uorjEG0-72uclnNMncX7-141" value="" style="endArrow=diamondThin;endFill=0;endSize=24;html=1;rounded=0;entryX=1;entryY=0.5;entryDx=0;entryDy=0;exitX=0;exitY=0.5;exitDx=0;exitDy=0;" parent="1" source="uorjEG0-72uclnNMncX7-110" target="uorjEG0-72uclnNMncX7-1" edge="1">
          <mxGeometry width="160" relative="1" as="geometry">
            <mxPoint x="-460" y="940" as="sourcePoint" />
            <mxPoint x="-300" y="940" as="targetPoint" />
          </mxGeometry>
        </mxCell>
        <mxCell id="uorjEG0-72uclnNMncX7-142" value="1" style="edgeLabel;html=1;align=center;verticalAlign=middle;resizable=0;points=[];" parent="uorjEG0-72uclnNMncX7-141" vertex="1" connectable="0">
          <mxGeometry x="0.8707" y="-4" relative="1" as="geometry">
            <mxPoint x="8" y="-12" as="offset" />
          </mxGeometry>
        </mxCell>
        <mxCell id="uorjEG0-72uclnNMncX7-143" value="*" style="edgeLabel;html=1;align=center;verticalAlign=middle;resizable=0;points=[];" parent="uorjEG0-72uclnNMncX7-141" vertex="1" connectable="0">
          <mxGeometry x="0.8197" y="-2" relative="1" as="geometry">
            <mxPoint x="163" y="-24" as="offset" />
          </mxGeometry>
        </mxCell>
        <mxCell id="uorjEG0-72uclnNMncX7-144" value="Use" style="endArrow=open;endSize=12;dashed=1;html=1;rounded=0;exitX=0.5;exitY=1;exitDx=0;exitDy=0;entryX=0.5;entryY=0;entryDx=0;entryDy=0;" parent="1" target="s4YndSarPMpqqNExpwYl-1" edge="1">
          <mxGeometry width="160" relative="1" as="geometry">
            <mxPoint x="-520" y="478" as="sourcePoint" />
            <mxPoint x="-600" y="510" as="targetPoint" />
          </mxGeometry>
        </mxCell>
        <mxCell id="uorjEG0-72uclnNMncX7-145" value="Use" style="endArrow=open;endSize=12;dashed=1;html=1;rounded=0;exitX=0.5;exitY=1;exitDx=0;exitDy=0;entryX=0.5;entryY=0;entryDx=0;entryDy=0;" parent="1" target="s4YndSarPMpqqNExpwYl-26" edge="1">
          <mxGeometry width="160" relative="1" as="geometry">
            <mxPoint x="-290" y="426" as="sourcePoint" />
            <mxPoint x="-410" y="582" as="targetPoint" />
          </mxGeometry>
        </mxCell>
        <mxCell id="uorjEG0-72uclnNMncX7-150" value="Use" style="endArrow=open;endSize=12;dashed=1;html=1;rounded=0;entryX=0.5;entryY=0;entryDx=0;entryDy=0;exitX=0.5;exitY=0.962;exitDx=0;exitDy=0;exitPerimeter=0;" parent="1" target="s4YndSarPMpqqNExpwYl-5" edge="1">
          <mxGeometry width="160" relative="1" as="geometry">
            <mxPoint x="-50" y="399.0119999999997" as="sourcePoint" />
            <mxPoint x="-120" y="600" as="targetPoint" />
          </mxGeometry>
        </mxCell>
        <mxCell id="2-DoI7EDZAkhtJbzjAjC-1" value="Presentation" style="shape=folder;fontStyle=1;tabWidth=110;tabHeight=30;tabPosition=left;html=1;boundedLbl=1;labelInHeader=1;container=1;collapsible=0;whiteSpace=wrap;" vertex="1" parent="1">
          <mxGeometry x="-980" y="-430" width="1080" height="230" as="geometry" />
        </mxCell>
        <mxCell id="2-DoI7EDZAkhtJbzjAjC-2" value="" style="html=1;strokeColor=none;resizeWidth=1;resizeHeight=1;fillColor=none;part=1;connectable=0;allowArrows=0;deletable=0;whiteSpace=wrap;" vertex="1" parent="2-DoI7EDZAkhtJbzjAjC-1">
          <mxGeometry width="1080" height="162.91666666666663" relative="1" as="geometry">
            <mxPoint y="30" as="offset" />
          </mxGeometry>
        </mxCell>
        <mxCell id="2-DoI7EDZAkhtJbzjAjC-4" value="UserSignUpView" style="html=1;whiteSpace=wrap;" vertex="1" parent="2-DoI7EDZAkhtJbzjAjC-1">
          <mxGeometry x="24.55" y="86.25" width="165.45" height="57.49999999999999" as="geometry" />
        </mxCell>
        <mxCell id="2-DoI7EDZAkhtJbzjAjC-5" value="HomePageView" style="html=1;whiteSpace=wrap;" vertex="1" parent="2-DoI7EDZAkhtJbzjAjC-1">
          <mxGeometry x="630" y="86.25" width="172.15" height="57.49999999999999" as="geometry" />
        </mxCell>
        <mxCell id="2-DoI7EDZAkhtJbzjAjC-6" value="UserProfileView" style="html=1;whiteSpace=wrap;" vertex="1" parent="2-DoI7EDZAkhtJbzjAjC-1">
          <mxGeometry x="850" y="86.25" width="169.87" height="57.49999999999999" as="geometry" />
        </mxCell>
        <mxCell id="2-DoI7EDZAkhtJbzjAjC-7" value="UserSignInView" style="html=1;whiteSpace=wrap;" vertex="1" parent="2-DoI7EDZAkhtJbzjAjC-1">
          <mxGeometry x="440" y="86.25" width="138.8" height="57.49999999999999" as="geometry" />
        </mxCell>
        <mxCell id="2-DoI7EDZAkhtJbzjAjC-8" value="PostView" style="html=1;whiteSpace=wrap;" vertex="1" parent="2-DoI7EDZAkhtJbzjAjC-1">
          <mxGeometry x="250" y="86.25" width="138.18" height="57.49999999999999" as="geometry" />
        </mxCell>
        <mxCell id="2-DoI7EDZAkhtJbzjAjC-9" value="Service" style="shape=folder;fontStyle=1;tabWidth=110;tabHeight=30;tabPosition=left;html=1;boundedLbl=1;labelInHeader=1;container=1;collapsible=0;whiteSpace=wrap;" vertex="1" parent="1">
          <mxGeometry x="-980" y="-170" width="1080" height="230" as="geometry" />
        </mxCell>
        <mxCell id="2-DoI7EDZAkhtJbzjAjC-10" value="" style="html=1;strokeColor=none;resizeWidth=1;resizeHeight=1;fillColor=none;part=1;connectable=0;allowArrows=0;deletable=0;whiteSpace=wrap;" vertex="1" parent="2-DoI7EDZAkhtJbzjAjC-9">
          <mxGeometry width="1080" height="162.91666666666663" relative="1" as="geometry">
            <mxPoint y="30" as="offset" />
          </mxGeometry>
        </mxCell>
        <mxCell id="2-DoI7EDZAkhtJbzjAjC-11" value="AuthService" style="html=1;whiteSpace=wrap;" vertex="1" parent="2-DoI7EDZAkhtJbzjAjC-9">
          <mxGeometry x="24.55" y="86.25" width="165.45" height="57.49999999999999" as="geometry" />
        </mxCell>
        <mxCell id="2-DoI7EDZAkhtJbzjAjC-12" value="CommentService" style="html=1;whiteSpace=wrap;" vertex="1" parent="2-DoI7EDZAkhtJbzjAjC-9">
          <mxGeometry x="630" y="86.25" width="172.15" height="57.49999999999999" as="geometry" />
        </mxCell>
        <mxCell id="2-DoI7EDZAkhtJbzjAjC-14" value="PostService" style="html=1;whiteSpace=wrap;" vertex="1" parent="2-DoI7EDZAkhtJbzjAjC-9">
          <mxGeometry x="440" y="86.25" width="138.8" height="57.49999999999999" as="geometry" />
        </mxCell>
        <mxCell id="2-DoI7EDZAkhtJbzjAjC-15" value="UserService" style="html=1;whiteSpace=wrap;" vertex="1" parent="2-DoI7EDZAkhtJbzjAjC-9">
          <mxGeometry x="250" y="86.25" width="138.18" height="57.49999999999999" as="geometry" />
        </mxCell>
        <mxCell id="2-DoI7EDZAkhtJbzjAjC-18" value="" style="endArrow=open;endSize=12;dashed=1;html=1;rounded=0;exitX=0.5;exitY=1;exitDx=0;exitDy=0;entryX=0.5;entryY=0;entryDx=0;entryDy=0;" edge="1" parent="1" source="2-DoI7EDZAkhtJbzjAjC-4" target="2-DoI7EDZAkhtJbzjAjC-11">
          <mxGeometry width="160" relative="1" as="geometry">
            <mxPoint x="-850" y="-180" as="sourcePoint" />
            <mxPoint x="-690" y="-180" as="targetPoint" />
          </mxGeometry>
        </mxCell>
        <mxCell id="2-DoI7EDZAkhtJbzjAjC-19" value="" style="endArrow=open;endSize=12;dashed=1;html=1;rounded=0;exitX=0.5;exitY=1;exitDx=0;exitDy=0;entryX=0.75;entryY=0;entryDx=0;entryDy=0;" edge="1" parent="1" source="2-DoI7EDZAkhtJbzjAjC-7" target="2-DoI7EDZAkhtJbzjAjC-11">
          <mxGeometry width="160" relative="1" as="geometry">
            <mxPoint x="-863" y="-276" as="sourcePoint" />
            <mxPoint x="-863" y="-74" as="targetPoint" />
          </mxGeometry>
        </mxCell>
        <mxCell id="2-DoI7EDZAkhtJbzjAjC-21" value="" style="endArrow=open;endSize=12;dashed=1;html=1;rounded=0;exitX=0.5;exitY=1;exitDx=0;exitDy=0;entryX=0.5;entryY=0;entryDx=0;entryDy=0;" edge="1" parent="1" source="2-DoI7EDZAkhtJbzjAjC-5" target="2-DoI7EDZAkhtJbzjAjC-15">
          <mxGeometry width="160" relative="1" as="geometry">
            <mxPoint x="-461" y="-276" as="sourcePoint" />
            <mxPoint x="-821" y="-74" as="targetPoint" />
          </mxGeometry>
        </mxCell>
        <mxCell id="2-DoI7EDZAkhtJbzjAjC-22" value="" style="endArrow=open;endSize=12;dashed=1;html=1;rounded=0;exitX=0.5;exitY=1;exitDx=0;exitDy=0;entryX=0.75;entryY=0;entryDx=0;entryDy=0;" edge="1" parent="1" source="2-DoI7EDZAkhtJbzjAjC-6" target="2-DoI7EDZAkhtJbzjAjC-15">
          <mxGeometry width="160" relative="1" as="geometry">
            <mxPoint x="-451" y="-266" as="sourcePoint" />
            <mxPoint x="-811" y="-64" as="targetPoint" />
          </mxGeometry>
        </mxCell>
        <mxCell id="2-DoI7EDZAkhtJbzjAjC-23" value="" style="endArrow=open;endSize=12;dashed=1;html=1;rounded=0;exitX=0.5;exitY=1;exitDx=0;exitDy=0;entryX=0.5;entryY=0;entryDx=0;entryDy=0;" edge="1" parent="1" source="2-DoI7EDZAkhtJbzjAjC-8" target="2-DoI7EDZAkhtJbzjAjC-14">
          <mxGeometry width="160" relative="1" as="geometry">
            <mxPoint x="-441" y="-256" as="sourcePoint" />
            <mxPoint x="-801" y="-54" as="targetPoint" />
          </mxGeometry>
        </mxCell>
        <mxCell id="2-DoI7EDZAkhtJbzjAjC-24" value="" style="endArrow=open;endSize=12;dashed=1;html=1;rounded=0;exitX=0.5;exitY=1;exitDx=0;exitDy=0;entryX=0.5;entryY=0;entryDx=0;entryDy=0;" edge="1" parent="1" source="2-DoI7EDZAkhtJbzjAjC-8" target="2-DoI7EDZAkhtJbzjAjC-12">
          <mxGeometry width="160" relative="1" as="geometry">
            <mxPoint x="-431" y="-246" as="sourcePoint" />
            <mxPoint x="-791" y="-44" as="targetPoint" />
          </mxGeometry>
        </mxCell>
        <mxCell id="2-DoI7EDZAkhtJbzjAjC-25" value="Data" style="shape=folder;fontStyle=1;tabWidth=110;tabHeight=30;tabPosition=left;html=1;boundedLbl=1;labelInHeader=1;container=1;collapsible=0;whiteSpace=wrap;" vertex="1" parent="1">
          <mxGeometry x="-980" y="90" width="1080" height="230" as="geometry" />
        </mxCell>
        <mxCell id="2-DoI7EDZAkhtJbzjAjC-26" value="" style="html=1;strokeColor=none;resizeWidth=1;resizeHeight=1;fillColor=none;part=1;connectable=0;allowArrows=0;deletable=0;whiteSpace=wrap;" vertex="1" parent="2-DoI7EDZAkhtJbzjAjC-25">
          <mxGeometry width="1080" height="162.91666666666663" relative="1" as="geometry">
            <mxPoint y="30" as="offset" />
          </mxGeometry>
        </mxCell>
        <mxCell id="2-DoI7EDZAkhtJbzjAjC-27" value="Follow" style="html=1;whiteSpace=wrap;" vertex="1" parent="2-DoI7EDZAkhtJbzjAjC-25">
          <mxGeometry x="24.55" y="86.25" width="165.45" height="57.49999999999999" as="geometry" />
        </mxCell>
        <mxCell id="2-DoI7EDZAkhtJbzjAjC-28" value="Comment" style="html=1;whiteSpace=wrap;" vertex="1" parent="2-DoI7EDZAkhtJbzjAjC-25">
          <mxGeometry x="630" y="86.25" width="172.15" height="57.49999999999999" as="geometry" />
        </mxCell>
        <mxCell id="2-DoI7EDZAkhtJbzjAjC-29" value="Post" style="html=1;whiteSpace=wrap;" vertex="1" parent="2-DoI7EDZAkhtJbzjAjC-25">
          <mxGeometry x="440" y="86.25" width="138.8" height="57.49999999999999" as="geometry" />
        </mxCell>
        <mxCell id="2-DoI7EDZAkhtJbzjAjC-30" value="User" style="html=1;whiteSpace=wrap;" vertex="1" parent="2-DoI7EDZAkhtJbzjAjC-25">
          <mxGeometry x="250" y="86.25" width="138.18" height="57.49999999999999" as="geometry" />
        </mxCell>
        <mxCell id="2-DoI7EDZAkhtJbzjAjC-31" value="" style="endArrow=open;endSize=12;dashed=1;html=1;rounded=0;exitX=0.5;exitY=1;exitDx=0;exitDy=0;entryX=0.5;entryY=0;entryDx=0;entryDy=0;" edge="1" parent="1" source="2-DoI7EDZAkhtJbzjAjC-11" target="2-DoI7EDZAkhtJbzjAjC-30">
          <mxGeometry width="160" relative="1" as="geometry">
            <mxPoint x="-461" y="-276" as="sourcePoint" />
            <mxPoint x="-821" y="-74" as="targetPoint" />
          </mxGeometry>
        </mxCell>
        <mxCell id="2-DoI7EDZAkhtJbzjAjC-32" value="" style="endArrow=open;endSize=12;dashed=1;html=1;rounded=0;exitX=0.5;exitY=1;exitDx=0;exitDy=0;entryX=0.75;entryY=0;entryDx=0;entryDy=0;" edge="1" parent="1" source="2-DoI7EDZAkhtJbzjAjC-15" target="2-DoI7EDZAkhtJbzjAjC-30">
          <mxGeometry width="160" relative="1" as="geometry">
            <mxPoint x="-863" y="-16" as="sourcePoint" />
            <mxPoint x="-651" y="186" as="targetPoint" />
          </mxGeometry>
        </mxCell>
        <mxCell id="2-DoI7EDZAkhtJbzjAjC-33" value="" style="endArrow=open;endSize=12;dashed=1;html=1;rounded=0;exitX=0.25;exitY=1;exitDx=0;exitDy=0;entryX=0.5;entryY=0;entryDx=0;entryDy=0;" edge="1" parent="1" source="2-DoI7EDZAkhtJbzjAjC-15" target="2-DoI7EDZAkhtJbzjAjC-27">
          <mxGeometry width="160" relative="1" as="geometry">
            <mxPoint x="-853" y="-6" as="sourcePoint" />
            <mxPoint x="-641" y="196" as="targetPoint" />
          </mxGeometry>
        </mxCell>
        <mxCell id="2-DoI7EDZAkhtJbzjAjC-34" value="" style="endArrow=open;endSize=12;dashed=1;html=1;rounded=0;exitX=0.5;exitY=1;exitDx=0;exitDy=0;" edge="1" parent="1" source="2-DoI7EDZAkhtJbzjAjC-14" target="2-DoI7EDZAkhtJbzjAjC-29">
          <mxGeometry width="160" relative="1" as="geometry">
            <mxPoint x="-651" y="-16" as="sourcePoint" />
            <mxPoint x="-616" y="186" as="targetPoint" />
          </mxGeometry>
        </mxCell>
        <mxCell id="2-DoI7EDZAkhtJbzjAjC-35" value="" style="endArrow=open;endSize=12;dashed=1;html=1;rounded=0;exitX=0.5;exitY=1;exitDx=0;exitDy=0;entryX=0.5;entryY=0;entryDx=0;entryDy=0;" edge="1" parent="1" source="2-DoI7EDZAkhtJbzjAjC-12" target="2-DoI7EDZAkhtJbzjAjC-28">
          <mxGeometry width="160" relative="1" as="geometry">
            <mxPoint x="-461" y="-16" as="sourcePoint" />
            <mxPoint x="-461" y="186" as="targetPoint" />
          </mxGeometry>
        </mxCell>
      </root>
    </mxGraphModel>
  </diagram>
</mxfile>
